:SAMPLES-PER-SECOND 30
:FULLY-SPECIFIED
:DEGREES
382
root  -9.88494 39.0806 -8.50382 14.8606 -21.3149 -66.7368
Spine  12.1596 15.5784 10.1458
Spine1  9.85559 -10.7025 -30.7925
Neck  3.97569e-016 0 -2.38542e-015
Head  -29.2552 -10.2783 51.2617
R_Clavicle  -1.61712 15.6115 -4.22199
R_UpperArm  103.758 25.7272 69.2527
R_Forearm  38.3363 1.75557 -1.48601
R_Hand  -6.3453 15.5125 -46.7978
L_Clavicle  -4.49682 -0.16912 31.2714
L_UpperArm  -86.4884 -65.8533 85.104
L_Forearm  13.4993 39.0183 73.5983
L_Hand  -3.48137 9.16867 -9.47893
L_Thigh  -17.5395 38.6346 -10.0997
L_Calf  -17.7981 -5.72701 48.5209
L_Foot  5.66712 21.941 0.939856
L_Toe0  0.505156 0.0344454 -6.1361
R_Thigh  22.4276 -36.1033 -24.7399
R_Calf  -10.7438 11.7969 44.0861
R_Foot  4.60413 23.3848 -22.5174
R_Toe0  -1.78853 -0.27023 -17.3236
383
root  -9.82568 39.3628 -8.37101 -8.48608 -19.1987 -55.7526
Spine  8.96631 16.591 3.3294
Spine1  9.10334 -15.4007 -35.9202
Neck  3.97569e-016 0 -2.38542e-015
Head  -30.4132 -9.14425 51.2445
R_Clavicle  -3.11565 29.1328 -6.00537
R_UpperArm  104.147 17.0249 72.9778
R_Forearm  25.7971 -4.5726 3.64767
R_Hand  -4.84029 15.5049 -39.2099
L_Clavicle  -5.66436 -4.71199 31.3713
L_UpperArm  -65.5592 -46.4619 52.3575
L_Forearm  4.71037 32.0797 68.131
L_Hand  10.4951 -0.35991 -45.2508
L_Thigh  -15.4643 36.7577 -6.67333
L_Calf  -21.4285 -8.21858 50.9973
L_Foot  6.61681 21.6053 3.55706
L_Toe0  0.505156 0.0344454 -6.1361
R_Thigh  23.8296 -37.2772 -19.608
R_Calf  -11.7057 12.4878 44.7078
R_Foot  4.51502 22.7208 -22.7736
R_Toe0  -1.78853 -0.270224 -17.3236
384
root  -9.99103 39.0649 -8.56278 -29.615 -12.282 -47.3253
Spine  5.8482 15.5914 -2.11735
Spine1  8.7301 -19.0102 -40.086
Neck  3.97569e-016 0 -2.38542e-015
Head  -30.7143 -6.75396 49.2825
R_Clavicle  1.53316 37.8838 4.43675
R_UpperArm  98.4892 11.8209 65.581
R_Forearm  -3.33621 -9.63608 9.58986
R_Hand  -4.64087 16.5029 -36.4667
L_Clavicle  -1.5544 -0.276816 11.3668
L_UpperArm  -61.1483 -41.5504 81.9823
L_Forearm  -29.0047 39.2029 65.8149
L_Hand  14.5332 -22.7973 -118.812
L_Thigh  -13.9971 38.2748 -1.57186
L_Calf  -25.1166 -8.77735 51.9629
L_Foot  7.35925 23.1777 4.34452
L_Toe0  0.505156 0.0344454 -6.1361
R_Thigh  22.5158 -38.3345 -12.5366
R_Calf  -13.2979 12.57 43.0307
R_Foot  4.68609 21.8309 -19.8882
R_Toe0  -1.78853 -0.270219 -17.3236
385
root  -10.4344 38.2242 -8.83279 -46.415 -3.72046 -44.7568
Spine  1.07833 10.3934 -4.68454
Spine1  5.81702 -19.7245 -43.5299
Neck  3.97569e-016 0 -2.38542e-015
Head  -29.9383 -5.5011 47.0502
R_Clavicle  5.26707 27.3276 13.8171
R_UpperArm  73.8722 4.59519 63.7133
R_Forearm  -47.8095 4.25405 -0.027284
R_Hand  -8.29991 30.5585 -45.8068
L_Clavicle  -1.8153 -2.52563 11.6927
L_UpperArm  -57.6655 -45.853 68.8368
L_Forearm  0.782328 39.599 65.6732
L_Hand  -32.7811 7.71565 -141.588
L_Thigh  -14.2598 42.2434 2.07433
L_Calf  -27.5057 -8.37567 51.7103
L_Foot  7.97041 24.1478 5.17567
L_Toe0  0.505156 0.0344454 -6.1361
R_Thigh  16.0829 -40.0206 -7.76071
R_Calf  -11.221 11.9881 41.4992
R_Foot  4.64054 19.2779 -16.0362
R_Toe0  -1.78853 -0.270214 -17.3236
386
root  -10.9787 36.9929 -8.59389 -58.6299 2.94852 -45.0657
Spine  -4.93619 2.07412 -4.86721
Spine1  -1.54027 -13.7506 -44.6625
Neck  3.97569e-016 0 -2.38542e-015
Head  -28.235 -6.9912 43.2319
R_Clavicle  2.81155 15.1982 9.45562
R_UpperArm  63.1664 18.8849 83.4957
R_Forearm  -44.0973 -9.65554 -0.966819
R_Hand  -33.8828 44.2778 -85.2135
L_Clavicle  -1.60269 -4.11779 9.83242
L_UpperArm  -54.6592 -50.6402 56.3224
L_Forearm  22.482 39.1973 65.8175
L_Hand  -68.3329 48.0572 -119.66
L_Thigh  -13.6494 47.1592 7.57564
L_Calf  -28.3448 -8.163 52.8539
L_Foot  7.66607 22.3137 5.69494
L_Toe0  0.505156 0.0344454 -6.1361
R_Thigh  10.793 -42.2452 -6.19599
R_Calf  -6.8015 11.8185 40.2375
R_Foot  3.97411 14.5686 -13.9422
R_Toe0  -1.78853 -0.27021 -17.3236
387
root  -11.2658 35.6782 -7.589 -67.9993 8.92624 -45.1092
Spine  -9.57069 -7.39787 -3.32606
Spine1  -10.4343 -1.06119 -43.5414
Neck  3.97569e-016 0 -2.38542e-015
Head  -27.4915 -10.1244 35.5646
R_Clavicle  3.24089 16.4272 10.6848
R_UpperArm  66.2004 25.1232 77.1564
R_Forearm  -42.204 -9.3534 -0.36792
R_Hand  -32.564 40.2344 -88.7461
L_Clavicle  -0.840389 -1.36246 5.71487
L_UpperArm  -49.7521 -57.7615 39.2768
L_Forearm  -11.7045 38.4724 66.0728
L_Hand  -6.23237 5.96722 -14.6077
L_Thigh  -9.58472 50.6129 18.0872
L_Calf  -28.0603 -8.24471 54.6006
L_Foot  6.91031 19.5628 5.79776
L_Toe0  0.505156 0.0344454 -6.1361
R_Thigh  10.5857 -45.1012 -4.08206
R_Calf  -4.35424 11.3289 38.2092
R_Foot  3.00854 9.04112 -12.6704
R_Toe0  -1.78853 -0.270206 -17.3236
388
root  -10.9778 34.5042 -6.15023 -77.0461 15.9314 -45.1831
Spine  -12.2245 -15.4021 -1.20969
Spine1  -17.1553 12.4488 -42.3683
Neck  3.97569e-016 0 -2.38542e-015
Head  -28.4337 -11.4824 25.6973
R_Clavicle  5.11888 22.4099 14.4623
R_UpperArm  74.1026 27.238 59.836
R_Forearm  -41.3963 -1.95835 2.51824
R_Hand  -30.6121 39.5091 -86.0525
L_Clavicle  0.293793 -4.68861 -0.946399
L_UpperArm  -40.3407 -59.7549 19.1993
L_Forearm  -17.8295 37.7272 66.3291
L_Hand  4.07044 -26.3254 -21.0816
L_Thigh  -3.9475 51.313 30.1978
L_Calf  -24.9597 -8.25526 55.1941
L_Foot  6.07757 16.0715 6.27383
L_Toe0  0.505156 0.0344454 -6.1361
R_Thigh  11.2869 -48.8885 0.451198
R_Calf  -2.80425 11.116 37.3158
R_Foot  2.23206 4.98803 -11.7715
R_Toe0  -1.78853 -0.270202 -17.3236
389
root  -10.0449 33.5824 -4.80815 -87.4612 23.4731 -46.0447
Spine  -15.0151 -21.7677 0.904474
Spine1  -22.8753 24.4625 -41.2208
Neck  3.97569e-016 0 -2.38542e-015
Head  -28.7068 -9.14762 17.8087
R_Clavicle  5.41738 22.7025 15.1742
R_UpperArm  79.2485 36.0591 53.4942
R_Forearm  -31.7756 -2.47398 5.71868
R_Hand  -37.4602 41.7495 -95.4727
L_Clavicle  1.21771 -11.4661 -3.76674
L_UpperArm  -29.5246 -61.0853 -1.09981
L_Forearm  -14.8897 37.2846 66.4776
L_Hand  0.239385 -7.73101 -10.7681
L_Thigh  -0.116628 51.1652 38.5935
L_Calf  -20.7185 -8.43205 55.9266
L_Foot  4.47108 12.8199 4.23106
L_Toe0  0.505156 0.0344454 -6.1361
R_Thigh  10.103 -52.6997 6.09956
R_Calf  -0.932058 11.5584 39.0979
R_Foot  1.98024 3.88762 -11.1165
R_Toe0  -1.78853 -0.270198 -17.3236
390
root  -8.60033 33.0639 -3.92458 -99.8896 30.5336 -47.347
Spine  -18.7597 -26.0977 3.47441
Spine1  -28.974 35.429 -40.2848
Neck  3.97569e-016 0 -2.38542e-015
Head  -25.6573 -4.76777 14.528
R_Clavicle  4.1306 22.3058 11.9346
R_UpperArm  78.3233 45.5576 52.0721
R_Forearm  -16.1578 -9.61189 10.0203
R_Hand  -46.0508 39.142 -111.866
L_Clavicle  1.40672 -16.2885 -3.41985
L_UpperArm  -18.9293 -62.1179 -17.7002
L_Forearm  -15.5794 37.6102 66.3643
L_Hand  -0.153354 -1.56767 -5.49526
L_Thigh  1.84794 52.1812 42.6771
L_Calf  -22.0264 -9.28576 56.6266
L_Foot  2.86903 12.591 -0.606321
L_Toe0  0.505156 0.0344454 -6.1361
R_Thigh  8.85376 -55.1722 11.1379
R_Calf  2.11937 12.2789 42.2469
R_Foot  2.12829 4.82512 -10.6483
R_Toe0  -1.78853 -0.270195 -17.3236
391
root  -6.99168 33.0075 -3.65478 -114.851 37.2577 -49.5689
Spine  -21.0708 -26.7534 5.61591
Spine1  -33.6416 42.9868 -40.7348
Neck  3.97569e-016 0 -2.38542e-015
Head  -20.5276 -2.47657 14.2326
R_Clavicle  3.07526 24.6392 8.81296
R_UpperArm  75.7505 51.2323 44.1089
R_Forearm  -0.544011 -14.6999 15.0891
R_Hand  -44.3342 31.0106 -120.786
L_Clavicle  1.59135 -16.158 -4.16207
L_UpperArm  -12.3228 -60.8789 -27.3779
L_Forearm  -16.3551 38.4709 66.0641
L_Hand  0.00196782 -5.30838 -6.08034
L_Thigh  1.65733 53.7233 42.1475
L_Calf  -28.9385 -10.5103 56.9589
L_Foot  2.01103 14.4491 -4.6397
L_Toe0  0.505156 0.0344454 -6.1361
R_Thigh  8.15381 -56.4122 15.805
R_Calf  4.26137 12.6849 44.3341
R_Foot  2.1367 5.3294 -9.28398
R_Toe0  -1.78853 -0.270192 -17.3236
392
root  -5.5773 33.2247 -3.97356 -133.019 43.625 -54.4141
Spine  -20.665 -24.5407 6.57557
Spine1  -35.4082 46.1287 -42.2085
Neck  3.97569e-016 0 -2.38542e-015
Head  -15.9396 -2.25784 12.7698
R_Clavicle  4.38762 28.7466 11.3288
R_UpperArm  71.6544 54.8507 28.1341
R_Forearm  13.4431 -14.5744 18.0924
R_Hand  -39.3383 24.8683 -123.446
L_Clavicle  1.91242 -13.4813 -6.05265
L_UpperArm  -11.2819 -57.8999 -30.2387
L_Forearm  -20.04 39.0623 65.8536
L_Hand  0.0313112 -5.75712 -6.3016
L_Thigh  -0.964822 53.9138 37.3379
L_Calf  -32.2945 -11.3258 57.03
L_Foot  1.05414 14.3482 -7.60273
L_Toe0  0.505156 0.0344454 -6.1361
R_Thigh  6.70614 -57.2663 20.344
R_Calf  4.72968 12.7336 44.394
R_Foot  1.61411 3.61485 -7.11483
R_Toe0  -1.78853 -0.270189 -17.3236
393
root  -4.59148 33.5539 -4.70182 -155.257 48.8058 -62.5309
Spine  -18.4159 -20.9668 6.52084
Spine1  -33.5617 45.5077 -41.9728
Neck  3.97569e-016 0 -2.38542e-015
Head  -12.5608 -0.105065 9.8463
R_Clavicle  6.79129 28.7785 16.8657
R_UpperArm  64.9404 56.6401 10.2132
R_Forearm  27.2467 -10.7378 17.0696
R_Hand  -37.2314 22.2723 -124.949
L_Clavicle  2.03807 -12.5111 -6.86802
L_UpperArm  -13.6484 -54.6222 -29.4589
L_Forearm  -27.8731 38.8861 65.9635
L_Hand  -0.125623 -4.13533 -10.3391
L_Thigh  -4.29484 52.8388 30.826
L_Calf  -26.786 -11.0349 57.1159
L_Foot  -0.54833 11.0827 -11.1369
L_Toe0  0.505156 0.0344454 -6.1361
R_Thigh  3.34532 -57.475 24.2341
R_Calf  4.61158 12.3526 42.4302
R_Foot  1.03718 2.05624 -4.6398
R_Toe0  -1.78853 -0.270187 -17.3236
394
root  -4.1293 33.9745 -5.536 178.516 52.0454 -73.0033
Spine  -14.8747 -16.505 5.7453
Spine1  -28.3885 41.5449 -39.5318
Neck  3.97569e-016 0 -2.38542e-015
Head  -10.51 3.99339 7.85628
R_Clavicle  6.78021 27.1354 17.2895
R_UpperArm  59.2076 57.3524 0.168546
R_Forearm  38.9582 -9.10706 15.9897
R_Hand  -37.5701 20.1109 -129.874
L_Clavicle  1.91417 -13.4959 -6.06168
L_UpperArm  -15.6484 -52.5405 -28.4873
L_Forearm  -36.2656 38.5921 66.7243
L_Hand  -0.19036 -1.88213 -8.31797
L_Thigh  -6.75129 51.8594 24.9742
L_Calf  -20.7154 -10.0298 56.8799
L_Foot  -1.44065 7.36807 -12.4277
L_Toe0  0.505156 0.0344454 -6.1361
R_Thigh  -2.1537 -56.5737 27.7726
R_Calf  5.08729 11.0825 37.073
R_Foot  0.734604 1.89018 -1.91927
R_Toe0  -1.78853 -0.270185 -17.3236
395
root  -4.18735 34.4072 -6.20642 151.489 53.1658 -83.2233
Spine  -10.6465 -11.3318 5.05311
Spine1  -21.6038 34.8253 -36.059
Neck  3.97569e-016 0 -2.38542e-015
Head  -9.32631 6.93351 6.99027
R_Clavicle  5.81585 27.674 14.8893
R_UpperArm  59.8078 54.2537 1.39283
R_Forearm  57.3547 -4.04389 11.493
R_Hand  -29.4514 13.0406 -131.838
L_Clavicle  1.72783 -14.3924 -5.0874
L_UpperArm  -20.5049 -51.3452 -23.0556
L_Forearm  -52.8474 35.2453 56.34
L_Hand  0.0980424 -9.55696 -5.16129
L_Thigh  -9.30179 50.8301 19.8003
L_Calf  -19.9172 -9.77721 55.483
L_Foot  -1.24326 4.64546 -10.0097
L_Toe0  0.505156 0.0344454 -6.1361
R_Thigh  -6.9955 -56.031 29.7426
R_Calf  5.67047 8.61724 27.7323
R_Foot  0.502597 1.91459 0.538988
R_Toe0  -1.78853 -0.270183 -17.3236
